<svg xmlns="http://www.w3.org/2000/svg" version="1.1" xmlns:xlink="http://www.w3.org/1999/xlink" xmlns:svgjs="http://svgjs.dev/svgjs" width="1000" height="623" viewBox="0 0 1000 623"><g transform="matrix(1,0,0,1,-0.6060606060606233,0.2522267206477409)"><svg viewBox="0 0 396 247" data-background-color="#282634" preserveAspectRatio="xMidYMid meet" height="623" width="1000" xmlns="http://www.w3.org/2000/svg" xmlns:xlink="http://www.w3.org/1999/xlink"><g id="tight-bounds" transform="matrix(1,0,0,1,0.2400000000000091,-0.09999999999999432)"><svg viewBox="0 0 395.52 247.2" height="247.2" width="395.52"><g><svg></svg></g><g><svg viewBox="0 0 395.52 247.2" height="247.2" width="395.52"><g transform="matrix(1,0,0,1,112.33448695652173,47.215199999999996)"><svg viewBox="0 0 170.85102608695652 152.7696" height="152.7696" width="170.85102608695652"><g><svg viewBox="0 0 170.85102608695652 152.7696" height="152.7696" width="170.85102608695652"><g><svg viewBox="0 0 170.85102608695652 152.7696" height="152.7696" width="170.85102608695652"><g><svg viewBox="0 0 170.85102608695652 152.7696" height="152.7696" width="170.85102608695652"><g id="textblocktransform"><svg viewBox="0 0 170.85102608695652 152.7696" height="152.7696" width="170.85102608695652" id="textblock"><g><svg viewBox="0 0 170.85102608695652 152.7696" height="152.7696" width="170.85102608695652"><g transform="matrix(1,0,0,1,0,0)"><svg width="170.85102608695652" viewBox="0.8100000023841858 -40.43000030517578 45.209999084472656 40.43000030517578" height="152.7696" data-palette-color="#ff4057"><path d="M27.15-11.87L19.73-11.87 20.43-13.62 26.44-13.62 27.15-11.87ZM28.56-8.35L18.36-8.35 19.04-10.11 27.81-10.11 28.56-8.35ZM29.93-4.83L16.99-4.83 17.68-6.59 29.2-6.59 29.93-4.83ZM17.75-38.06L2.71 0 0.81 0 16.8-40.43 18.7-40.43 34.67 0 32.79 0 17.75-38.06ZM4.59 0L17.97-33.89 18.97-31.64 6.47 0 4.59 0ZM8.37 0L19.92-29.25 20.85-26.83 10.28 0 8.37 0ZM12.16 0L21.78-24.41 22.71-21.95 14.04 0 12.16 0ZM30.03-40.43L46.02 0 44.12 0 28.15-40.43 30.03-40.43ZM24.37-40.43L26.25-40.43 42.24 0 40.36 0 24.37-40.43ZM20.58-40.43L22.46-40.43 38.45 0 36.55 0 20.58-40.43Z" opacity="1" transform="matrix(1,0,0,1,0,0)" fill="#ff4057" class="wordmark-text-0" data-fill-palette-color="primary" id="text-0"></path></svg></g></svg></g></svg></g></svg></g></svg></g></svg></g></svg></g><g><path d="M209.026 0c30.402 0 58.24 10.976 79.768 29.183l-11.147 0c-19.26-14.022-42.974-22.294-68.622-22.295-25.647 0-49.361 8.272-68.621 22.295l-11.147 0c21.528-18.206 49.366-29.183 79.768-29.183zM332.626 123.6c0 26.496-8.337 51.045-22.532 71.166l0-12.761c9.948-17.178 15.643-37.127 15.643-58.405 0-21.279-5.694-41.227-15.643-58.405l0-12.761c14.194 20.121 22.531 44.67 22.532 71.166zM209.026 247.2c-30.402 0-58.24-10.976-79.769-29.183l11.147 0c19.26 14.022 42.974 22.294 68.622 22.295 25.647 0 49.361-8.272 68.621-22.295l11.147 0c-21.528 18.206-49.366 29.183-79.768 29.183z" fill="#ff4057" stroke="transparent" data-fill-palette-color="tertiary"></path></g></svg></g><defs></defs></svg><rect width="395.52" height="247.2" fill="none" stroke="none" visibility="hidden"></rect></g></svg></g></svg>